<?xml version="1.0" standalone="no"?>
<!DOCTYPE svg PUBLIC "-//W3C//DTD SVG 20010904//EN"
 "http://www.w3.org/TR/2001/REC-SVG-20010904/DTD/svg10.dtd">
<svg version="1.0" xmlns="http://www.w3.org/2000/svg"
 width="260.000000pt" height="260.000000pt" viewBox="0 0 260.000000 260.000000"
 preserveAspectRatio="xMidYMid meet">
<metadata>
Created by potrace 1.14, written by Peter Selinger 2001-2017
</metadata>
<g transform="translate(0.000000,260.000000) scale(0.100000,-0.100000)"
fill="#000000" stroke="none">
<path d="M1150 2593 c-283 -47 -476 -129 -660 -278 -324 -262 -495 -629 -485
-1045 2 -80 6 -156 9 -170 4 -14 9 -38 12 -55 22 -128 85 -290 156 -408 183
-302 477 -520 804 -598 132 -31 160 -34 329 -33 125 1 181 6 254 22 540 123
925 531 1016 1077 13 76 14 318 2 390 -92 542 -484 958 -1013 1075 -95 21
-354 35 -424 23z m260 -27 c436 -30 846 -313 1038 -716 59 -126 97 -254 117
-400 6 -48 6 -246 0 -295 -48 -369 -229 -676 -526 -890 -156 -113 -360 -197
-529 -220 -25 -3 -56 -8 -71 -11 -59 -11 -295 -4 -349 11 -8 2 -31 6 -51 9
-56 8 -197 55 -277 92 -362 167 -644 528 -711 909 -6 33 -13 74 -16 90 -7 43
-8 241 0 300 46 369 231 678 536 896 152 110 361 192 549 218 82 11 174 18
195 14 6 -1 48 -4 95 -7z"/>
<path d="M860 2317 c-41 -18 -84 -38 -94 -44 -16 -9 -26 -7 -49 11 -22 16 -43
21 -92 21 -71 0 -106 -19 -138 -73 l-18 -31 31 -16 c17 -9 51 -17 75 -18 34
-2 41 -5 33 -15 -7 -8 -23 -10 -47 -6 -20 4 -45 8 -56 10 -43 8 -135 -28 -183
-71 -47 -43 -96 -121 -85 -138 12 -20 183 14 219 44 26 21 24 5 -7 -47 -28
-50 -31 -51 -83 -57 -123 -12 -210 -101 -232 -235 -6 -37 -4 -42 12 -42 32 0
119 46 161 84 l40 36 -20 -74 c-21 -72 -21 -73 -68 -89 -63 -23 -131 -98 -157
-175 -20 -61 -25 -183 -7 -188 24 -8 103 83 155 177 l30 54 -3 -84 c-3 -75 -6
-86 -28 -105 -81 -70 -111 -206 -73 -335 l16 -56 24 30 c13 16 34 62 46 102
12 40 26 73 30 73 5 0 7 -3 6 -7 -1 -5 2 -29 6 -56 7 -36 4 -55 -10 -85 -25
-54 -29 -122 -10 -178 17 -50 63 -124 76 -124 11 0 30 56 31 89 l0 26 11 -25
c42 -101 59 -130 111 -181 54 -54 180 -130 193 -116 3 3 -4 10 -15 17 -12 6
-21 16 -21 22 0 7 5 6 15 -2 12 -10 15 -10 15 3 0 9 -4 19 -10 22 -5 3 -56 59
-112 123 -57 64 -111 126 -121 137 -21 22 -41 59 -51 92 -5 15 13 2 51 -38 32
-34 81 -74 108 -90 52 -30 81 -37 69 -18 -3 6 -2 14 5 18 20 13 -41 113 -114
187 -39 39 -94 83 -122 98 -29 14 -53 27 -53 29 0 1 -6 39 -14 85 -7 45 -12
82 -11 82 2 0 16 -26 31 -57 36 -71 105 -148 155 -173 43 -22 64 -26 53 -9 -3
6 -2 14 4 18 14 9 -20 107 -59 171 -35 58 -96 113 -152 138 l-38 17 5 107 c3
58 9 114 12 123 5 11 19 -13 44 -75 57 -137 118 -220 199 -272 l44 -28 13 26
c11 21 10 34 -10 94 -13 38 -36 90 -50 114 -35 60 -119 151 -175 188 -25 17
-47 32 -49 34 -10 7 76 244 88 244 4 0 13 -30 20 -67 28 -147 76 -256 147
-326 49 -49 73 -63 73 -42 0 8 4 15 9 15 15 0 0 111 -25 185 -31 89 -75 162
-141 233 -35 38 -51 62 -48 74 3 9 28 47 55 84 l50 68 -1 -80 c0 -167 39 -273
141 -380 l45 -47 9 33 c6 22 6 56 -2 102 -16 92 -85 300 -121 365 l-28 51 36
36 c42 42 55 45 45 14 -13 -42 -12 -112 3 -163 14 -49 59 -125 73 -125 33 0
46 248 17 327 l-16 43 47 27 c26 16 49 28 52 29 3 0 19 6 35 13 17 7 42 15 58
18 15 3 30 9 32 13 5 7 -27 2 -85 -14 -18 -5 -16 -1 10 13 55 32 13 24 -70
-12z"/>
<path d="M1920 2201 c0 -4 6 -13 13 -20 10 -11 7 -12 -13 -6 -22 6 -21 3 16
-36 22 -24 73 -82 111 -129 39 -47 83 -96 98 -110 28 -26 47 -57 60 -100 6
-19 -6 -11 -50 34 -59 59 -138 116 -162 116 -7 0 -13 -7 -13 -16 0 -8 -4 -12
-10 -9 -16 10 -12 -4 22 -69 41 -77 147 -185 213 -216 28 -13 52 -25 54 -27 8
-6 28 -153 22 -153 -4 0 -16 19 -28 43 -33 67 -100 142 -154 171 -48 26 -49
27 -49 7 0 -12 -4 -21 -9 -21 -13 0 23 -102 53 -155 35 -58 99 -120 153 -146
l46 -22 -6 -110 c-3 -60 -10 -114 -16 -120 -8 -8 -11 -7 -11 1 0 26 -92 208
-131 258 -35 45 -121 114 -142 114 -4 0 -7 -7 -7 -15 0 -8 -4 -15 -9 -15 -11
0 3 -63 30 -132 39 -101 144 -224 224 -265 17 -9 31 -16 32 -17 11 -9 -72
-246 -86 -246 -4 0 -18 45 -31 101 -35 153 -96 266 -171 320 -29 20 -31 20
-43 4 -13 -17 -13 -58 -1 -133 10 -68 101 -235 160 -295 30 -31 55 -59 55 -62
0 -9 -102 -156 -106 -153 -1 2 -4 37 -5 78 -5 162 -44 271 -131 363 l-50 52
-11 -25 c-5 -14 -10 -27 -10 -30 6 -60 16 -114 33 -177 26 -94 98 -280 111
-288 19 -12 6 -41 -33 -74 l-40 -35 8 40 c19 95 1 182 -53 252 l-26 34 -15
-33 c-23 -53 -25 -194 -4 -277 l18 -71 -25 -12 c-14 -7 -33 -18 -41 -25 -8 -6
-32 -17 -52 -24 -21 -6 -38 -16 -38 -21 0 -5 11 -4 26 1 14 6 23 6 20 2 -3 -5
-32 -17 -66 -27 -33 -10 -58 -20 -56 -22 8 -8 126 29 195 62 l73 35 35 -21
c52 -32 129 -31 181 3 22 15 44 40 50 56 9 27 8 30 -24 46 -19 9 -53 16 -76
16 -38 0 -41 2 -27 15 11 12 22 13 49 5 117 -34 247 27 304 142 14 28 24 54
21 56 -17 18 -175 -13 -222 -44 -27 -17 -29 -8 -7 24 8 12 22 34 29 49 12 23
21 27 62 29 106 6 186 70 221 179 30 90 29 104 -5 97 -35 -6 -106 -45 -154
-82 l-36 -29 21 72 c18 58 27 72 47 77 110 30 185 139 196 284 6 79 -2 95 -37
76 -24 -13 -90 -99 -130 -171 l-31 -54 6 86 c5 83 7 87 44 127 48 50 74 125
73 206 -2 66 -21 146 -37 149 -15 3 -57 -80 -76 -148 l-16 -60 -12 58 c-11 51
-10 63 8 112 23 61 26 111 11 165 -11 41 -65 130 -79 130 -10 0 -29 -44 -33
-80 -3 -20 -7 -16 -21 26 -22 65 -97 157 -165 204 -55 37 -112 64 -112 51z"/>
<path d="M1022 2164 c4 -3 24 -7 45 -7 l38 -2 2 -300 c1 -190 -2 -302 -8 -306
-6 -3 -26 -5 -45 -4 -19 1 -34 -3 -34 -8 0 -5 81 -7 193 -5 187 3 194 4 249
31 111 54 164 157 161 313 -2 132 -65 231 -174 272 -47 17 -79 20 -244 21
-104 1 -186 -1 -183 -5z m381 -29 c45 -21 82 -75 101 -145 18 -67 15 -236 -4
-298 -18 -56 -72 -118 -117 -133 -40 -13 -156 -20 -171 -10 -5 3 -9 142 -8
308 l0 301 81 -3 c51 -1 96 -9 118 -20z"/>
<path d="M1076 1338 c-10 -29 -21 -59 -23 -65 -3 -7 -1 -13 5 -13 5 0 19 26
31 59 23 64 25 71 13 71 -4 0 -16 -24 -26 -52z"/>
<path d="M1398 1385 c-18 -29 -46 -126 -35 -122 13 4 50 104 44 120 -2 7 -6 7
-9 2z"/>
<path d="M862 1358 c-17 -17 -15 -63 3 -78 12 -10 21 -10 40 -2 42 19 30 92
-15 92 -9 0 -21 -5 -28 -12z m43 -38 c0 -13 -6 -25 -12 -27 -16 -6 -27 21 -19
43 9 23 31 11 31 -16z"/>
<path d="M947 1364 c-11 -11 3 -24 18 -17 22 8 18 -21 -5 -42 -28 -26 -25 -33
15 -32 33 1 52 17 20 17 -14 0 -13 3 1 25 13 20 14 28 4 40 -13 15 -42 20 -53
9z"/>
<path d="M1161 1356 c-31 -37 9 -103 47 -80 36 23 23 94 -18 94 -10 0 -23 -6
-29 -14z m44 -36 c0 -13 -6 -25 -12 -27 -16 -6 -27 21 -19 43 9 23 31 11 31
-16z"/>
<path d="M1247 1363 c-4 -3 -7 -13 -7 -22 0 -12 3 -12 12 -3 26 26 38 14 22
-23 -16 -40 -17 -45 -6 -45 10 0 42 65 42 85 0 15 -50 22 -63 8z"/>
<path d="M1460 1360 c-16 -10 -8 -14 23 -11 24 3 21 -11 -8 -39 -29 -28 -25
-39 16 -38 33 1 52 18 20 18 -19 0 -20 1 -3 30 15 27 15 32 2 40 -19 12 -31
12 -50 0z"/>
<path d="M1546 1354 c-9 -8 -16 -18 -16 -22 2 -70 80 -82 80 -13 0 47 -34 65
-64 35z m42 -28 c5 -25 -16 -45 -27 -27 -7 11 -8 23 -2 49 3 11 27 -8 29 -22z"/>
<path d="M1625 1360 c-7 -11 0 -13 28 -11 24 3 21 -11 -8 -39 -33 -31 -32 -37
10 -38 19 -1 35 3 35 8 0 6 -7 10 -17 10 -15 0 -15 1 0 18 10 10 17 26 17 34
0 25 -52 39 -65 18z"/>
<path d="M1710 1360 c-15 -10 -8 -14 23 -11 24 3 21 -11 -8 -39 -33 -31 -32
-35 10 -38 19 -2 35 2 35 8 0 5 -7 10 -17 10 -15 0 -15 2 1 19 34 37 -2 79
-44 51z"/>
<path d="M1043 1107 c-3 -5 10 -8 28 -7 19 1 39 2 44 1 6 -1 10 -110 10 -306
l0 -305 -42 0 c-24 0 -43 -3 -43 -8 0 -10 256 -9 266 0 4 5 -14 8 -39 8 l-47
0 0 148 0 147 78 0 77 0 3 -47 c2 -27 6 -48 10 -48 10 0 9 176 -1 186 -4 4 -7
-11 -7 -34 l0 -42 -80 0 -80 0 0 150 c0 113 3 150 13 151 47 3 230 -2 238 -6
5 -4 9 -40 9 -81 0 -41 4 -74 9 -74 7 0 21 84 25 150 l1 25 -233 1 c-132 0
-235 -3 -239 -9z"/>
</g>
</svg>
